HIERARCHY
ROOT Hips
{
	OFFSET 0.00000 0.00000 0.00000
	CHANNELS 6 Xposition Yposition Zposition Zrotation Yrotation Xrotation 
	JOINT LHipJoint
	{
		OFFSET 0 0 0
		CHANNELS 3 Zrotation Yrotation Xrotation
		JOINT LeftHip
		{
			OFFSET 1.44361 -1.63093 0.70831
			CHANNELS 3 Zrotation Yrotation Xrotation
			JOINT LeftKnee
			{
				OFFSET 2.20103 -6.04728 0.00000
				CHANNELS 3 Zrotation Yrotation Xrotation
				JOINT LeftAnkle
				{
					OFFSET 2.54154 -6.98283 0.00000
					CHANNELS 3 Zrotation Yrotation Xrotation
					JOINT LeftToe
					{
						OFFSET 0.05971 -0.16406 1.77582
						CHANNELS 3 Zrotation Yrotation Xrotation
						End Site
						{
							OFFSET 0.00000 -0.00000 0.90832
						}
					}
				}
			}
		}
	}
	JOINT RHipJoint
	{
		OFFSET 0 0 0
		CHANNELS 3 Zrotation Yrotation Xrotation
		JOINT RightHip
		{
			OFFSET -1.65838 -1.63093 0.70830
			CHANNELS 3 Zrotation Yrotation Xrotation
			JOINT RightKnee
			{
				OFFSET -2.26926 -6.23475 0.00000
				CHANNELS 3 Zrotation Yrotation Xrotation
				JOINT RightAnkle
				{
					OFFSET -2.34808 -6.45129 0.00000
					CHANNELS 3 Zrotation Yrotation Xrotation
					JOINT RightToe
					{
						OFFSET -0.18633 -0.51195 1.68539
						CHANNELS 3 Zrotation Yrotation Xrotation
						End Site
						{
							OFFSET -0.00000 -0.00000 0.88927
						}
					}
				}
			}
		}
	}
	JOINT lowerback
	{
		OFFSET 0 0 0
		CHANNELS 3 Zrotation Yrotation Xrotation
		JOINT Chest
		{
			OFFSET -0.10393 2.01691 0.06920
			CHANNELS 3 Zrotation Yrotation Xrotation
			JOINT Chest2
			{
				OFFSET 0.04092 2.01302 -0.05283
				CHANNELS 3 Zrotation Yrotation Xrotation
				JOINT lowerneck
				{
					OFFSET 0 0 0
					CHANNELS 3 Zrotation Yrotation Xrotation
					JOINT Neck
					{
						OFFSET -0.02870 1.58978 -0.03113
						CHANNELS 3 Zrotation Yrotation Xrotation
						JOINT Head
						{
							OFFSET 0.11532 1.54326 -0.29195
							CHANNELS 3 Zrotation Yrotation Xrotation
							End Site
							{
								OFFSET 0.04056 1.59999 -0.09535
							}
						}
					}
				}
				JOINT LeftCollar
				{
					OFFSET 0 0 0
					CHANNELS 3 Zrotation Yrotation Xrotation
					JOINT LeftShoulder
					{
						OFFSET 3.30641 1.15764 0.01104
CHANNELS 3 Zrotation Xrotation Yrotation
						JOINT LeftElbow
						{
OFFSET 0 -4.632080 0.000000
CHANNELS 3 Zrotation Xrotation Yrotation
							JOINT LeftWrist
							{
OFFSET 0 -3.419240 -0.000000
CHANNELS 3 Zrotation Xrotation Yrotation
								JOINT lhand
								{
									OFFSET 0 0 0
CHANNELS 3 Zrotation Xrotation Yrotation
									JOINT LFingers
									{
OFFSET 0 -0.625370 -0.000000
CHANNELS 3 Zrotation Xrotation Yrotation
										End Site
										{
OFFSET 0 -0.504190 -0.000000
										}
									}
								}
								JOINT LThumb
								{
OFFSET 0 0.000000 0.000000
CHANNELS 3 Zrotation Xrotation Yrotation
									End Site
									{
OFFSET 0 -0.511890 0.511890
									}
								}
							}
						}
					}
				}
				JOINT RightCollar
				{
					OFFSET 0 0 0
					CHANNELS 3 Zrotation Yrotation Xrotation
					JOINT RightShoulder
					{
						OFFSET -3.78081 1.02180 -0.16609
CHANNELS 3 Zrotation Xrotation Yrotation
						JOINT RightElbow
						{
OFFSET 0 -4.406400 -0.000000
CHANNELS 3 Zrotation Xrotation Yrotation
							JOINT RightWrist
							{
OFFSET 0 -3.446750 0.000000
CHANNELS 3 Zrotation Xrotation Yrotation
								JOINT rhand
								{
									OFFSET 0 0 0
CHANNELS 3 Zrotation Xrotation Yrotation
									JOINT RFingers
									{
OFFSET 0 -0.513670 -0.000000
CHANNELS 3 Zrotation Xrotation Yrotation
										End Site
										{
OFFSET 0 -0.414140 -0.000000
										}
									}
								}
								JOINT RThumb
								{
OFFSET 0 0.000000 0.000000
CHANNELS 3 Zrotation Xrotation Yrotation
									End Site
									{
OFFSET 0 -0.420460 0.420460
									}
								}
							}
						}
					}
				}
			}
		}
	}
}
MOTION
Frames: 9
Frame Time: .0083333
9.0032 17.3029 38.7834 179.5400 -0.8450 -169.8230 0.0000 0.0000 0.0000 -14.6249 -12.0761 -3.5222 0.0685 1.6885 4.6456 0.9799 0.8753 -19.0418 8.2870 -16.3264 -53.5901 0.0000 0.0000 0.0000 12.7006 8.9796 -5.7377 -0.1526 -2.5172 6.9372 -0.5126 -2.1348 -14.4686 -2.3974 9.6490 -27.8474 -5.0093 1.7166 -8.0483 1.6377 2.6714 0.5230 4.8479 1.1668 4.7570 -3.1016 -1.6081 -8.3623 7.1634 -5.5985 25.6890 2.2970 -2.8674 9.7700 -0.0000 -0.0000 0.0000 0.0602 -1.4151 -19.6915 8.3242 -14.0771 1.0296 23.6103 19.905 18.7259 0.0 0.0 0.0 -7.1250 0.0 0.0 -2.9598 9.6993 -2.4221 -0.0000 -0.0000 0.0000 3.4559 10.0133 -12.9526 -14.4012 -23.3053 -2.985 -25.2619 33.7238 37.9951 0.0 0.0 0.0 7.1250 0.0 -0.0 14.1392 70.3366 -8.6141
9.0379 17.3044 38.7827 179.4490 -0.9343 -169.8680 0.0000 0.0000 0.0000 -14.6097 -12.1409 -3.3459 0.0632 1.6222 4.4626 0.9803 0.8273 -19.0268 8.2188 -16.2779 -53.3471 0.0000 0.0000 0.0000 12.7395 8.7734 -5.8257 -0.1591 -2.5700 7.0838 -0.5165 -1.9915 -14.4443 -2.3722 9.6018 -27.6967 -4.8236 1.5959 -7.9572 1.7330 2.4848 0.5889 4.8205 1.0751 4.8001 -3.3055 -1.7483 -8.5680 7.5112 -5.8469 25.6325 2.4229 -2.9602 9.8217 0.0000 0.0000 0.0000 -0.1433 -1.6625 -19.2266 8.1605 -13.8127 0.9901 23.612 20.484 18.7238 0.0 0.0 0.0 -7.1250 0.0 0.0 -2.9585 9.7013 -2.421 0.0000 0.0000 0.0000 3.2327 9.9224 -13.0781 -14.4149 -23.3247 -2.9904 -25.4422 33.8177 38.2378 0.0 0.0 0.0 7.1250 0.0 -0.0 14.2033 70.6265 -8.7448
9.0754 17.3042 38.7815 179.2000 -1.0519 -169.9060 0.0000 0.0000 0.0000 -14.8166 -12.3479 -3.0716 0.0573 1.5448 4.2492 0.9793 0.9082 -19.0485 8.1940 -16.2601 -53.2584 0.0000 0.0000 0.0000 12.6081 8.5444 -5.8459 -0.1619 -2.5927 7.1469 -0.5209 -1.8892 -14.4491 -2.3581 9.5752 -27.6119 -4.7538 1.4370 -7.8153 1.7923 2.2567 0.5922 4.8126 0.9647 4.7504 -3.3209 -1.7109 -8.5702 7.6087 -5.8330 25.6410 2.4607 -2.9501 9.8277 -0.0000 -0.0000 0.0000 -0.3201 -1.8453 -18.7991 7.9733 -13.5096 0.9459 23.6282 21.1216 18.6291 0.0 0.0 0.0 -7.1250 0.0 0.0 -2.9398 9.7999 -2.3997 -0.0000 -0.0000 0.0000 2.9629 10.0233 -12.9894 -14.4570 -23.3843 -3.0071 -25.5863 33.5238 38.0981 0.0 0.0 0.0 7.1250 0.0 -0.0 13.8310 70.5408 -8.4864
9.1182 17.3045 38.7803 179.1470 -1.2151 -169.8270 0.0000 0.0000 0.0000 -14.6863 -12.4823 -3.0685 0.0546 1.5073 4.1458 0.9621 1.1780 -18.9934 8.3746 -16.3880 -53.9012 0.0000 0.0000 0.0000 12.7369 8.4929 -5.9351 -0.1655 -2.6206 7.2243 -0.5270 -1.9322 -14.5500 -2.3698 9.5972 -27.6820 -4.4648 1.2911 -7.7807 1.9071 2.0236 0.5578 4.7417 0.8550 4.7270 -3.1788 -1.7292 -8.4920 7.5849 -5.8692 25.5117 2.4236 -2.9597 9.7645 -0.0000 -0.0000 0.0000 -0.4151 -1.9932 -18.8613 7.8407 -13.2943 0.9152 23.5405 21.3858 18.556 0.0 0.0 0.0 -7.1250 0.0 0.0 -2.9905 9.8912 -2.4358 -0.0000 -0.0000 0.0000 2.6577 10.0513 -13.151 -14.4346 -23.3527 -2.9982 -25.4052 33.2882 38.157 0.0 0.0 0.0 7.1250 0.0 -0.0 14.1504 70.5376 -8.684
9.1650 17.3060 38.7730 179.2700 -1.3379 -169.7660 0.0000 0.0000 0.0000 -14.3337 -12.5772 -3.1637 0.0573 1.5446 4.2487 0.9617 1.3846 -19.0766 8.5471 -16.5073 -54.5102 0.0000 0.0000 0.0000 13.0982 8.4473 -5.9968 -0.1678 -2.6387 7.2743 -0.5330 -1.8854 -14.6033 -2.3804 9.6172 -27.7458 -4.0166 1.1136 -7.7912 2.1523 1.7245 0.5206 4.7117 0.7120 4.7326 -3.2496 -1.6785 -8.4111 7.6349 -5.7902 25.4108 2.4625 -2.9289 9.7105 -0.0000 0.0000 0.0000 -0.6604 -2.0065 -19.0458 7.7958 -13.2213 0.9049 23.4223 21.4097 18.1994 0.0 0.0 0.0 -7.1250 0.0 0.0 -3.0378 10.2893 -2.4499 -0.0000 0.0000 0.0000 2.1766 10.1218 -13.2457 -14.3906 -23.2903 -2.9808 -25.5165 33.4028 38.3246 0.0 0.0 0.0 7.1250 0.0 -0.0 14.2141 70.7333 -8.7851
9.2166 17.3064 38.7650 179.1900 -1.3640 -169.8130 0.0000 0.0000 0.0000 -14.2486 -12.7647 -3.1790 0.0654 1.6504 4.5404 0.9806 1.5794 -19.3407 8.7256 -16.6279 -55.1362 0.0000 0.0000 0.0000 13.2330 8.4137 -5.9733 -0.1717 -2.6695 7.3600 -0.5423 -1.7826 -14.6707 -2.3380 9.5372 -27.4907 -3.7528 0.9396 -7.6760 2.3456 1.4483 0.5138 4.7308 0.5778 4.6919 -3.3850 -1.6388 -8.2668 7.6745 -5.7251 25.3329 2.5079 -2.9162 9.6545 -0.0000 0.0000 0.0000 -0.9099 -1.9553 -19.1909 7.8394 -13.2922 0.9148 23.6553 21.2557 18.1819 0.0 0.0 0.0 -7.1250 0.0 0.0 -2.8840 10.2737 -2.3264 -0.0000 0.0000 0.0000 1.6858 10.1889 -13.2945 -14.3490 -23.2314 -2.9644 -25.4735 33.5257 38.5312 0.0 0.0 0.0 7.1250 0.0 -0.0 14.5420 70.9151 -9.0488
9.2700 17.3055 38.7592 179.0280 -1.4341 -169.8050 0.0000 0.0000 0.0000 -14.2371 -12.9928 -3.1951 0.0708 1.7168 4.7237 0.9892 1.7875 -19.5138 8.8996 -16.7427 -55.7424 0.0000 0.0000 0.0000 13.2727 8.3684 -6.0210 -0.1777 -2.7157 7.4882 -0.5529 -1.7137 -14.7707 -2.2793 9.4251 -27.1344 -3.4725 0.8023 -7.6324 2.4646 1.2282 0.5642 4.6721 0.4700 4.7468 -3.3909 -1.6873 -8.1901 7.6881 -5.7735 25.1561 2.5083 -2.9386 9.5806 0.0000 -0.0000 0.0000 -1.0482 -2.161 -19.2317 7.8463 -13.3034 0.9164 24.0417 21.0587 18.9305 0.0 0.0 0.0 -7.1250 0.0 0.0 -2.6978 9.4144 -2.2227 0.0000 -0.0000 0.0000 1.3436 10.0913 -13.7261 -14.3513 -23.2346 -2.9653 -24.7229 33.5105 38.6868 0.0 0.0 0.0 7.1250 0.0 -0.0 15.7616 70.8132 -9.7839
9.3246 17.3046 38.7547 178.8740 -1.5624 -169.7270 0.0000 0.0000 0.0000 -14.1889 -13.1681 -3.2840 0.0741 1.7562 4.8324 0.9858 1.9323 -19.5471 9.0434 -16.8356 -56.2401 0.0000 0.0000 0.0000 13.3138 8.2170 -6.1602 -0.1833 -2.7579 7.6054 -0.5621 -1.5581 -14.8116 -2.1679 9.2074 -26.4464 -3.1073 0.5967 -7.6580 2.6218 0.9056 0.6033 4.5948 0.3112 4.8390 -3.3860 -1.6797 -8.3067 7.5340 -5.7023 25.1211 2.4602 -2.9123 9.5808 -0.0000 -0.0000 0.0000 -1.2535 -2.3555 -19.1363 7.8784 -13.3555 0.9238 24.1606 20.9546 19.4025 0.0 0.0 0.0 -7.1250 0.0 0.0 -2.6645 8.8907 -2.2231 -0.0000 -0.0000 0.0000 0.8914 10.0209 -14.0367 -14.3766 -23.2705 -2.9753 -24.103 33.4998 38.6959 0.0 0.0 0.0 7.1250 0.0 -0.0 16.5973 70.617 -10.2398
9.3832 17.3054 38.7481 178.6670 -1.6267 -169.7150 0.0000 0.0000 0.0000 -14.2109 -13.3045 -3.2947 0.0781 1.8030 4.9615 0.9871 2.0727 -19.6238 9.1963 -16.9324 -56.7666 0.0000 0.0000 0.0000 13.2972 7.9572 -6.2570 -0.1863 -2.7800 7.6670 -0.5680 -1.2909 -14.7620 -2.0635 8.9971 -25.7862 -2.7663 0.3951 -7.6272 2.7783 0.5887 0.6530 4.5292 0.1553 4.9074 -3.3433 -1.6062 -8.4693 7.2364 -5.4899 25.0941 2.3716 -2.8257 9.5785 -0.0000 -0.0000 0.0000 -1.4659 -2.4251 -19.2859 8.0091 -13.5676 0.9543 24.1387 20.6702 19.4582 0.0 0.0 0.0 -7.1250 0.0 0.0 -2.6838 8.8346 -2.2423 -0.0000 -0.0000 0.0000 0.3642 9.9408 -14.2424 -14.3471 -23.2287 -2.9636 -24.0109 33.5302 38.8839 0.0 0.0 0.0 7.1250 0.0 -0.0 16.9776 70.7615 -10.5328
